<svg width="20" height="16" xmlns="http://www.w3.org/2000/svg" fill="none">

 <g>
  <title>Layer 1</title>
  <path id="svg_1" fill-opacity="0.4" fill="#FAC412" d="m10.6651,0.72233l2.0873,3.68528c0.1538,0.267 0.4473,0.45241 0.7858,0.49362l4.6885,0.59993c0.2738,0.03378 0.5223,0.16069 0.6902,0.35435c0.1659,0.19119 0.2372,0.43347 0.1969,0.67162c-0.0328,0.19778 -0.1388,0.38073 -0.301,0.52082l-3.3973,2.89334c-0.2485,0.20191 -0.361,0.50101 -0.301,0.79361l0.8364,4.0676c0.0891,0.4912 -0.2813,0.9543 -0.8364,1.0474c-0.2288,0.0322 -0.4632,-0.0016 -0.6695,-0.0939l-4.1822,-1.9143c-0.31037,-0.1377 -0.67701,-0.1377 -0.98739,0l-4.18215,1.9143c-0.51386,0.2398 -1.15056,0.0766 -1.43656,-0.3684c-0.10596,-0.1772 -0.14346,-0.3791 -0.10877,-0.576l0.83643,-4.0685c0.06001,-0.2917 -0.05345,-0.5925 -0.301,-0.79439l-3.39729,-2.89169c-0.40415,-0.34282 -0.41634,-0.90731 -0.0272,-1.26249c0.00844,-0.00742 0.01782,-0.01566 0.0272,-0.0239c0.16128,-0.14421 0.3732,-0.23569 0.602,-0.25958l4.68851,-0.60076c0.33757,-0.04203 0.63107,-0.22579 0.78579,-0.49444l2.01231,-3.69352c0.1791,-0.31645 0.55043,-0.5134 0.95364,-0.50516l0.12565,0c0.34973,0.03708 0.65453,0.22744 0.81113,0.50516z"/>
 </g>
</svg>